# xmcd CD database generated by RipIT
#
# Track frame offsets:
# 150
# 10567
# 21567
# 35944
# 52096
# 62454
# 74042
# 87488
# 100895
# 112591
# 123910
# 136527
# 149175
# 160929
# 175586
# 190346
# 204170
# 217371
# 229287
#
# Disc length: 3220 seconds
#
# Revision: 2
# Processed by: cddbd v1.5.2PL0 Copyright (c) Steve Scherf et al.
# Submitted via: RipIT 4.0.0-beta20140508 www.suwald.com/ripit/ripit.html on 2018-03-15 at 08:32
#
DISCID=190c9213
DTITLE=Dave Dudley - The Farewell Album - CD2
DYEAR=2004
DGENRE=Country
TTITLE0=Six days on the road
TTITLE1=Mamas town
TTITLE2=Im Stau
TTITLE3=Sunday here in Deutschland
TTITLE4=John Henry No.2
TTITLE5=Professional bum
TTITLE6=It was not a good year
TTITLE7=Cowboy hat
TTITLE8=Yellow rose of Texas
TTITLE9=Roving gambler
TTITLE10=Tavern in our town
TTITLE11=Fantastic memory
TTITLE12=Wandering truck driving man
TTITLE13=Somewhere in L.A.
TTITLE14=Mountain dew
TTITLE15=The watering hole
TTITLE16=Looking south
TTITLE17=Lotsa things I am gonna do in Texas
TTITLE18=As of now
EXTD=
EXTT0=
EXTT1=
EXTT2=
EXTT3=
EXTT4=
EXTT5=
EXTT6=
EXTT7=
EXTT8=
EXTT9=
EXTT10=
EXTT11=
EXTT12=
EXTT13=
EXTT14=
EXTT15=
EXTT16=
EXTT17=
EXTT18=
PLAYORDER=
